<svg xmlns="http://www.w3.org/2000/svg" xmlns:xlink="http://www.w3.org/1999/xlink" width="234" zoomAndPan="magnify" viewBox="0 0 175.5 148.499996" height="198" preserveAspectRatio="xMidYMid meet" version="1.0"><defs><clipPath id="375cc2799f"><path d="M 0.046875 17 L 52 17 L 52 53 L 0.046875 53 Z M 0.046875 17 " clip-rule="nonzero"/></clipPath><clipPath id="3940f75d9f"><path d="M 30 7.871094 L 145 7.871094 L 145 21 L 30 21 Z M 30 7.871094 " clip-rule="nonzero"/></clipPath><clipPath id="96b3e458ae"><path d="M 50 59 L 125 59 L 125 140.921875 L 50 140.921875 Z M 50 59 " clip-rule="nonzero"/></clipPath><clipPath id="d21d6fa718"><path d="M 123 17 L 174.957031 17 L 174.957031 53 L 123 53 Z M 123 17 " clip-rule="nonzero"/></clipPath></defs><path fill="#f49f1c" d="M 50.238281 52.707031 L 124.898438 52.707031 L 117.210938 27.085938 L 57.925781 27.085938 Z M 50.238281 52.707031 " fill-opacity="1" fill-rule="nonzero"/><g clip-path="url(#375cc2799f)"><path fill="#f49f1c" d="M 0.238281 41.183594 L 43.742188 52.058594 L 51.507812 26.175781 L 18.359375 17.886719 Z M 0.238281 41.183594 " fill-opacity="1" fill-rule="nonzero"/></g><g clip-path="url(#3940f75d9f)"><path fill="#f49f1c" d="M 119.199219 7.871094 L 55.9375 7.871094 L 30.359375 14.289062 L 55.9375 20.679688 L 119.199219 20.679688 L 144.824219 14.273438 Z M 119.199219 7.871094 " fill-opacity="1" fill-rule="nonzero"/></g><g clip-path="url(#96b3e458ae)"><path fill="#f49f1c" d="M 50.878906 59.109375 L 87.558594 140.957031 L 124.257812 59.109375 Z M 50.878906 59.109375 " fill-opacity="1" fill-rule="nonzero"/></g><path fill="#f49f1c" d="M 3.871094 48.691406 L 75.953125 130.730469 L 43.648438 58.636719 Z M 3.871094 48.691406 " fill-opacity="1" fill-rule="nonzero"/><g clip-path="url(#d21d6fa718)"><path fill="#f49f1c" d="M 123.625 26.175781 L 131.390625 52.058594 L 174.894531 41.183594 L 156.773438 17.886719 Z M 123.625 26.175781 " fill-opacity="1" fill-rule="nonzero"/></g><path fill="#f49f1c" d="M 99.160156 130.726562 L 171.261719 48.691406 L 131.488281 58.636719 Z M 99.160156 130.726562 " fill-opacity="1" fill-rule="nonzero"/></svg>